<?xml version="1.0" encoding="UTF-8"?>
<svg xmlns="http://www.w3.org/2000/svg" xmlns:xlink="http://www.w3.org/1999/xlink" viewBox="0 0 25 25" width="25px" height="25px">
<g id="surface11112769">
<path style=" stroke:none;fill-rule:nonzero;fill:rgb(44.313726%,44.313726%,44.313726%);fill-opacity:1;" d="M 12.5 25 C 5.597656 25 0 19.402344 0 12.5 C 0 5.597656 5.597656 0 12.5 0 C 19.402344 0 25 5.597656 25 12.5 C 25 19.402344 19.402344 25 12.5 25 Z M 12.5 25 "/>
<path style=" stroke:none;fill-rule:nonzero;fill:rgb(13.725491%,13.725491%,13.333334%);fill-opacity:1;" d="M 3.832031 7 C 3.632812 7 3.472656 7.160156 3.472656 7.359375 L 3.472656 12.457031 C 3.472656 14.683594 5.164062 16.617188 7.382812 16.742188 C 9.515625 16.863281 11.324219 15.371094 11.703125 13.375 C 11.910156 13.652344 12.121094 13.910156 12.332031 14.148438 L 11.054688 19.554688 C 11.03125 19.664062 11.054688 19.777344 11.125 19.863281 C 11.195312 19.949219 11.296875 20 11.40625 20 L 13.257812 20 C 13.425781 20 13.570312 19.886719 13.605469 19.722656 C 13.832031 18.777344 14.183594 17.292969 14.5 15.949219 L 14.832031 16.140625 C 15.613281 16.546875 16.40625 16.75 17.195312 16.75 C 19.792969 16.75 21.863281 14.453125 21.484375 11.785156 C 21.230469 10.015625 19.871094 8.558594 18.125 8.183594 C 16.09375 7.746094 14.132812 8.789062 13.292969 10.519531 C 13.292969 10.519531 13.199219 10.726562 13.125 10.933594 C 12.527344 9.90625 12.175781 8.839844 11.996094 8.066406 C 11.925781 7.785156 11.828125 7.277344 11.816406 7.242188 C 11.765625 7.097656 11.628906 7 11.476562 7 L 9.609375 7 C 9.410156 7 9.25 7.160156 9.25 7.359375 L 9.25 12.523438 C 9.25 13.375 8.632812 14.132812 7.789062 14.214844 C 6.820312 14.308594 6 13.546875 6 12.597656 L 6 7.359375 C 6 7.160156 5.839844 7 5.640625 7 Z M 17.195312 10.609375 C 18.191406 10.609375 19 11.421875 19 12.417969 C 19 13.414062 18.191406 14.222656 17.195312 14.222656 C 16.390625 14.222656 15.648438 13.738281 15.125 13.316406 C 15.316406 12.511719 15.441406 11.972656 15.445312 11.964844 C 15.652344 11.167969 16.371094 10.609375 17.195312 10.609375 Z M 17.195312 10.609375 "/>
</g>
</svg>
